<?xml version="1.0" encoding="UTF-8"?>
<svg width="228px" height="42px" viewBox="0 0 228 42" version="1.1" xmlns="http://www.w3.org/2000/svg" xmlns:xlink="http://www.w3.org/1999/xlink">
    <!-- Generator: Sketch 60.1 (88133) - https://sketch.com -->
    <title>icon / stars</title>
    <desc>Created with Sketch.</desc>
    <g id="Page-1" stroke="none" stroke-width="1" fill="none" fill-rule="evenodd">
        <g id="Chad_Love_Desktop_Homepage_Hover" transform="translate(-411.000000, -2076.000000)" fill="#FF6800">
            <g id="Group-14" transform="translate(35.000000, 2037.000000)">
                <g id="icon-/-stars" transform="translate(376.000000, 39.000000)">
                    <g id="icon-/-star">
                        <g transform="translate(0.000000, 0.652174)">
                            <g id="Group-5" transform="translate(0.000000, 0.457826)">
                                <g id="if_755_-_Star_1702978-(1)">
                                    <polygon id="Shape" points="21.355524 0.329437445 16.4751741 15.3032435 0.588077635 15.2723909 13.4638944 24.4973249 8.52124213 39.4505626 21.355524 30.1742074 34.1898058 39.4505626 29.2575373 24.4973249 42.1229703 15.2723909 26.2358738 15.3032435"></polygon>
                                </g>
                            </g>
                        </g>
                        <g transform="translate(46.186801, 0.652174)">
                            <g id="Group-5" transform="translate(0.000000, 0.457826)">
                                <g id="if_755_-_Star_1702978-(1)">
                                    <polygon id="Shape" points="21.355524 0.329437445 16.4751741 15.3032435 0.588077635 15.2723909 13.4638944 24.4973249 8.52124213 39.4505626 21.355524 30.1742074 34.1898058 39.4505626 29.2575373 24.4973249 42.1229703 15.2723909 26.2358738 15.3032435"></polygon>
                                </g>
                            </g>
                        </g>
                        <g transform="translate(92.373602, 0.652174)">
                            <g id="Group-5" transform="translate(0.000000, 0.457826)">
                                <g id="if_755_-_Star_1702978-(1)">
                                    <polygon id="Shape" points="21.355524 0.329437445 16.4751741 15.3032435 0.588077635 15.2723909 13.4638944 24.4973249 8.52124213 39.4505626 21.355524 30.1742074 34.1898058 39.4505626 29.2575373 24.4973249 42.1229703 15.2723909 26.2358738 15.3032435"></polygon>
                                </g>
                            </g>
                        </g>
                        <g transform="translate(138.560402, 0.652174)">
                            <g id="Group-5" transform="translate(0.000000, 0.457826)">
                                <g id="if_755_-_Star_1702978-(1)">
                                    <polygon id="Shape" points="21.355524 0.329437445 16.4751741 15.3032435 0.588077635 15.2723909 13.4638944 24.4973249 8.52124213 39.4505626 21.355524 30.1742074 34.1898058 39.4505626 29.2575373 24.4973249 42.1229703 15.2723909 26.2358738 15.3032435"></polygon>
                                </g>
                            </g>
                        </g>
                        <g transform="translate(184.747203, 0.652174)">
                            <g id="Group-5" transform="translate(0.000000, 0.457826)">
                                <g id="if_755_-_Star_1702978-(1)">
                                    <polygon id="Shape" points="21.355524 0.329437445 16.4751741 15.3032435 0.588077635 15.2723909 13.4638944 24.4973249 8.52124213 39.4505626 21.355524 30.1742074 34.1898058 39.4505626 29.2575373 24.4973249 42.1229703 15.2723909 26.2358738 15.3032435"></polygon>
                                </g>
                            </g>
                        </g>
                    </g>
                </g>
            </g>
        </g>
    </g>
</svg>